<?xml version="1.0" encoding="UTF-8" standalone="no"?>
<svg
   width="1396"
   height="1014"
   viewBox="0 -125 350 570"
   style="background-color:#deca86"
   version="1.1"
   id="svg6"
   sodipodi:docname="inkscape-gift.svg"
   inkscape:version="1.2.1 (9c6d41e4, 2022-07-14)"
   xmlns:inkscape="http://www.inkscape.org/namespaces/inkscape"
   xmlns:sodipodi="http://sodipodi.sourceforge.net/DTD/sodipodi-0.dtd"
   xmlns="http://www.w3.org/2000/svg"
   xmlns:svg="http://www.w3.org/2000/svg">
  <defs
     id="defs10" />
  <sodipodi:namedview
     id="namedview8"
     pagecolor="#505050"
     bordercolor="#eeeeee"
     borderopacity="1"
     inkscape:showpageshadow="0"
     inkscape:pageopacity="0"
     inkscape:pagecheckerboard="0"
     inkscape:deskcolor="#505050"
     showgrid="false"
     inkscape:zoom="0.51247745"
     inkscape:cx="254.64535"
     inkscape:cy="451.72719"
     inkscape:window-width="1691"
     inkscape:window-height="859"
     inkscape:window-x="0"
     inkscape:window-y="25"
     inkscape:window-maximized="0"
     inkscape:current-layer="svg6" />
  <circle
     fill="#080608"
     cx="175"
     cy="160"
     r="179"
     id="circle2" />
  <path
     fill="#ffffff"
     d="m 260.00289,138.55919 c 0,-4.475 -2.508,-9.254 -6.136,-12.962 a 4.468,4.468 0 0 0 -0.436,-3.233 c -2.386,-4.269 -8.62,-6.724 -19.7,-8.082 -4.823,-0.59 -10.564,-0.974 -17.305,-1.208 15.461,-8.505 21.919,-20.960001 22.315,-26.706001 0.349,-5.056 -2.713,-11.743 -7.8,-17.037 -6.462,-6.724 -14.995,-10.291 -24.07,-10.021 -10.434,0.302 -23.641,7.335 -31.746,36.447 -5.545,-14.51 -14.627,-29.585 -25.143,-34.74 -15.271,-7.484 -30.736,6.991 -35.255,16.028 -4.188,8.376 -6.563,17.047 10.144,30.970001 7.413,6.177 18.242,9.383 27.909,11.043 h -43.277 c -9.112,0 -19.500001,10.388 -19.500001,19.5 -0.013,44.667 0,67.664 0,103.001 0,9.112 10.388001,19.5 19.500001,19.5 h 131 c 9.112,0 19.5,-10.388 19.5,-19.5 -0.349,-40.703 0,-67.674 0,-103 z m -81,-10.5 h 61.5 c 4.121,0 10.5,6.378 10.5,10.5 v 51.833 h -72 z m 28.131,-59.752001 c 0.229,-0.006 0.455,-0.01 0.68,-0.01 8.379,0 14,4.523 16.64,7.27 4.087,4.253 5.427,8.503 5.311,10.182 -0.393,5.687 -13.73,26.264001 -49.195,27.044001 3.016,-17.389001 10.292,-44.014001 26.564,-44.486001 z m -84.356,12.765 c 2.161,-4.323 10.25,-13.078 18.455,-13.078 1.606,0 3.218,0.336 4.79,1.106 10.029,4.917 20.913,26.084 24.64,42.673001 -8.496,-0.245 -29.35,-1.772 -40.028,-10.671 -12.616,-10.512001 -10.516,-14.713001 -7.857,-20.030001 z m -13.275,46.987001 h 60.5 v 62.333 H 99.002889 v -51.833 c 0,-4.122 6.378001,-10.5 10.500001,-10.5 z m 0,124 c -4.122,0 -10.500001,-6.379 -10.500001,-10.5 v -42.167 h 71.000001 v 52.667 z m 131,0 h -61.5 v -52.667 h 72 v 42.167 c 0,4.121 -6.379,10.5 -10.5,10.5 z"
     id="path4" />
</svg>
