<?xml version="1.0" encoding="UTF-8" standalone="no"?>
<!DOCTYPE svg PUBLIC "-//W3C//DTD SVG 1.1//EN" "http://www.w3.org/Graphics/SVG/1.1/DTD/svg11.dtd">
<!-- Created with Vectornator (http://vectornator.io/) -->
<svg height="100%" stroke-miterlimit="10" style="fill-rule:nonzero;clip-rule:evenodd;stroke-linecap:round;stroke-linejoin:round;" version="1.1" viewBox="0 0 1024 1024" width="100%" xml:space="preserve" xmlns="http://www.w3.org/2000/svg" xmlns:vectornator="http://vectornator.io" xmlns:xlink="http://www.w3.org/1999/xlink">
<defs/>
<g id="Layer-2" vectornator:layerName="Layer 2"/>
<g id="Layer-1-copy" vectornator:layerName="Layer 1 copy">
<g opacity="1" vectornator:layerName="Group 1">
<path d="M0 0.5C0 512.25 0 512.25 0 1024C511.75 1024 511.75 1024 1023.5 1024C1023.5 512.25 1023.5 512.25 1023.5 0.5C511.75 0.5 511.75 0.5 0 0.5Z" fill="#c9dee7" fill-rule="nonzero" opacity="0" stroke="none"/>
<path d="M839.054 797.792C748.513 770.116 661.681 723.751 567.432 714.763C471.716 705.634 373.991 721.979 280.523 744.526C240.084 754.281 209.554 787.943 174.069 809.651C183.696 825.067 187.03 847.13 202.949 855.899C286.91 902.15 371.481 958.713 466.575 970.782C560.421 982.692 660.84 964.746 746.636 924.899C794.147 902.834 808.248 840.161 839.054 797.792Z" fill="#ffffff" fill-rule="nonzero" opacity="1" stroke="none" vectornator:layerName="Curve 1"/>
<path d="M330.5 740.5C359.75 810.5 359.75 810.5 389 880.5C419 856 419 856 449 831.5C451.446 834.723 454.312 837.665 456.337 841.168C462.203 851.313 472.375 860.616 472.61 872.333C473.131 898.313 463.203 923.444 458.5 949C459.788 949.658 460.919 950.953 462.365 950.973C490.603 951.363 518.844 950.473 547.084 950.223C543.548 925.217 534.817 900.346 534.947 875.244C534.961 872.511 535.08 869.776 535.323 867.037C536.529 853.409 550.108 844.012 557.5 832.5C587.25 856.5 587.25 856.5 617 880.5C646.5 810.5 646.5 810.5 676 740.5C676 740.5 775.452 780.223 818.327 797.348C861.202 814.473 847.5 809 847.5 809C846.95 804.911 858.111 791.36 858.111 791.36C858.111 791.36 848.208 784.361 843.859 781.953C790.723 752.536 726.207 746.159 675 713.5C659.342 703.514 665.194 677.023 655 661.5C649.821 653.614 634.564 655.235 631 646.5C625.582 633.222 627.53 617.308 631.325 603.478C634.023 593.645 646.044 588.484 649.547 578.909C655.38 562.967 650.49 543.689 658.648 528.802C663.401 520.128 677.176 521.048 684.745 514.681C691.409 509.074 698.329 502.195 700.347 493.723C707.128 465.249 712.927 435.672 710.508 406.501C709.624 395.835 692.264 391.628 691 381C685.47 334.494 693.507 287.253 690.769 240.499C690.09 228.912 686.443 217.282 680.818 207.128C674.295 195.357 665.548 184.469 655.054 176.043C645.331 168.235 631.246 167.279 621.5 159.5C612.589 152.387 609.056 140.037 600.5 132.5C591.476 124.551 581.169 117.23 569.639 113.816C548.197 107.467 525.675 103.271 503.318 103.727C479.175 104.22 455.136 109.603 432.031 116.626C419.61 120.402 408.576 128.069 398.083 135.714C378.787 149.775 359.478 164.222 343 181.5C327.908 197.325 316.893 221.802 316 244C314.171 289.464 320.328 335.257 315.5 380.5C314.76 387.434 303.765 388.654 299.942 394.486C296.755 399.347 295.209 405.485 295.312 411.297C295.699 433.175 297.352 455.156 301.398 476.66C303.42 487.409 306.107 499.025 313.357 507.214C322.196 517.199 340.37 517.039 347.255 528.459C355.911 542.815 350.39 562.19 356.023 577.979C359.8 588.565 371.871 595.097 374.891 605.922C378.481 618.79 380.167 633.68 375 646C371.495 654.358 356.996 652.938 352 660.5C341.33 676.651 346.203 703.726 329.935 714.217C278.603 747.321 213.821 754.205 160.5 784C153.279 788.035 160.595 800.543 160.642 808.814C245.571 774.657 245.571 774.657 330.5 740.5Z" fill="#000000" fill-rule="nonzero" opacity="1" stroke="none"/>
<path d="M489 407C498.396 404.703 508.351 405.323 518 406C518.183 390.631 524.968 382.867 541.745 380.517C567.911 376.851 594.53 375.728 620.811 373.017C620.83 342.139 622.602 310.565 620.646 279.75C620.235 273.271 617.033 267.094 613.557 261.611C610.022 256.034 604.166 249.678 599.371 245.138C588.799 235.129 564.651 256.608 553.81 260.286C535.422 266.525 515.165 272.813 495.5 274.5C462.801 277.305 404.383 269 389.5 312.5C384.09 328.312 385.447 345.736 385.139 362.445C385.023 368.738 383.864 372.828 390.151 373.465C412.079 375.688 434.139 376.539 456.039 379.034C478.192 381.557 485.394 386.292 489 407Z" fill="#ffffff" fill-rule="nonzero" opacity="1" stroke="none"/>
<path d="M597.5 228C565.433 254.094 526.86 261.038 485.893 264.074C441.411 267.37 402.649 254.265 373.078 292.418C356.058 314.378 365.321 331.613 361 357.5C359.26 367.926 354.092 377.48 350.639 387.47C362.874 392.192 363.438 382.514 373.5 376.5C377.637 374.027 382.792 373.234 387.729 372.9C387.801 359.26 386.866 345.05 387.565 331.428C388.228 318.508 392.458 307.846 400.571 297.405C419.885 272.55 460.925 278.793 486.743 276.148C500.568 274.732 514.391 272.912 527.98 270.002C538.039 267.849 548.048 265.061 557.5 261C569.118 256.009 578.259 243.75 590.88 242.98C591.223 242.959 591.56 242.957 591.893 242.972C599.385 243.318 604.352 252.58 610.074 257.79C613.695 261.087 618.504 273.059 618.696 276.486C620.493 308.613 619.899 340.829 620.5 373C630.867 375.456 633.897 374.366 641 381.5C642.696 383.203 642.758 386.635 645 387.5C648.529 388.862 652.566 387.449 656.349 387.424C656.678 376.898 646.827 368.209 645.454 357.767C642.618 336.195 645.59 314.231 644.5 292.5C643.046 263.504 618.683 243.968 597.5 228Z" fill="#e4e4e4" fill-rule="nonzero" opacity="1" stroke="none"/>
<path d="M365.5 509.5C368.833 529 373.876 573.244 374.517 575.777C380.286 598.579 402.106 614.075 418.434 631.003C439.199 652.531 452.219 669.519 482.092 670.704C496.316 671.268 510.569 671.603 524.796 671.13C530.989 670.924 537.225 670.23 543.221 668.671C564.91 663.03 579.251 641.773 595.205 626.035C610.658 610.79 631.683 589.589 635.408 566.895C638.098 550.51 639.444 533.911 640.422 517.335C640.489 516.196 639.141 515.445 638.5 514.5C621.152 543.51 604.186 572.752 586.455 601.53C561.068 642.734 541.438 652.52 494.344 651.626C482.372 651.399 464.753 650.148 454.772 641.335C432.217 621.42 416.343 594.804 400.358 569.313C388.098 549.763 377.119 529.438 365.5 509.5Z" fill="#7e7e7e" fill-rule="nonzero" opacity="1" stroke="none"/>
<path d="M408.5 653C408.955 658.161 411.046 663.109 413.248 667.799C423.329 689.28 433.486 710.728 444 732C446.599 737.259 450.049 742.073 452.575 747.367C453.567 749.445 452.965 752.284 454.5 754C460.443 760.641 496.229 783.15 505 781C511.096 779.506 516.42 775.749 521.869 772.635C531.601 767.074 547.229 757.521 555.297 751.187C584.143 728.539 582.5 689 598.5 656C574.364 680.931 552.306 704.23 521.129 720.264C518.871 721.425 505.369 726.914 500.5 726C480.691 722.28 464.152 708.002 448.138 695.764C432.585 683.878 420.747 667.959 408.5 653Z" fill="#b2b2b2" fill-rule="nonzero" opacity="1" stroke="none"/>
<path d="M444 574.5C428.359 596.274 442.317 621.305 464.5 633C469.62 635.699 476.55 636.812 482.197 636.94C494.704 637.226 507.225 637.313 519.727 636.882C529.363 636.55 541.355 634.076 549.575 628.446C566.93 616.56 579.747 590.725 562.5 574.5C553.867 588.888 538.533 578.332 525.09 576.078C515.95 574.546 506.766 579.63 497.5 579.5C488.747 579.377 481.832 574.221 473.659 576.647C460.457 580.565 452.257 587.475 444 574.5Z" fill="#eff4f6" fill-rule="nonzero" opacity="1" stroke="none"/>
<path d="M633 676C622.576 686.424 637.682 705.244 628.5 717.5C605.586 748.087 571.815 764.027 544.338 788.952C575.419 815.976 575.419 815.976 606.5 843C616.225 831.202 619.239 813.902 624.5 800.5C634.058 776.151 645.325 752.466 654.119 727.83C657.509 718.332 647.178 708.89 643.5 699.5C640.371 691.511 637.877 683.059 633 676Z" fill="#ffffff" fill-rule="nonzero" opacity="1" stroke="none"/>
<path d="M372 677.5C366.615 686.739 349.752 720.84 353.325 730.418C367.169 767.528 382.388 804.113 397.361 840.782C397.96 842.25 399.82 844.904 400.999 843.845C421.108 825.772 444.166 809.028 462 789C437.801 769.02 411.63 753.832 389.701 731.046C384.809 725.963 378.834 721.147 376.529 714.479C372.293 702.229 377.834 689.378 372 677.5Z" fill="#ffffff" fill-rule="nonzero" opacity="1" stroke="none"/>
<path d="M370.666 479.104C369.916 479.854 372.25 481.25 371.5 482C378.293 493.186 390.193 502.22 394.399 514.617C399.807 530.553 404.011 546.874 409.075 562.922C410.609 567.782 412.419 573.654 417.95 574.068C417.45 566.555 463.191 561.847 463.191 561.847C463.191 561.847 477.446 550.399 480.406 548.394C484.064 545.915 484.705 549.929 488.5 548C475.775 537.484 461.815 530.518 464.044 512.599C465.184 503.434 467.22 494.384 468.094 485.189C468.216 483.912 470.496 478.667 470.496 478.667L465.912 482.264C447.488 494.875 427.927 492.017 405.5 492C392.965 491.991 381.086 485.443 370.666 479.104Z" fill="#ffffff" fill-rule="nonzero" opacity="1" stroke="none"/>
<path d="M656 420C650.044 433.513 651.037 448.497 645.769 462.493C638.839 480.905 621.023 493.952 612.956 512.05C604.392 531.262 600.678 552.372 592.428 571.721C589.933 577.571 585.268 582.285 581 587C579.097 589.103 576.469 583.477 574.766 581.208C566.893 584.759 570.85 591.638 570 598C568.891 606.3 563.669 613.514 557.931 619.244C538.122 639.025 514.738 636.747 487.58 636.096C478.33 635.874 468.884 633.913 460.5 630C456.081 634.419 453.113 631.728 449.011 637.48C449.243 637.636 449.474 637.789 449.704 637.941C471.576 652.344 469.786 649.836 492.661 651.924C506.428 653.182 538.987 651.448 551.065 642.858C560.933 635.841 576.147 616.893 576.147 616.893C576.147 616.893 592.516 591.265 600.58 578.742C615.467 555.626 633.668 533.863 643 508C652.979 480.345 653.203 450.084 657.5 421C657.588 420.406 656.5 420.333 656 420Z" fill="#cfcfcf" fill-rule="nonzero" opacity="1" stroke="none"/>
<path d="M537.216 479.345C533.926 482.634 542.172 514.079 542.104 522.021C542.097 522.927 541 524.606 541 524.606C541 524.606 530.079 533.776 528.8 540.571C527.18 549.18 577.227 555.847 584.544 562.885C588.205 566.406 588.326 571.042 592 574.5C601.159 559.632 606.687 530.173 611.5 516.5C615.901 503.997 626.592 494.205 633.5 483C635.779 479.325 637.313 478.951 636.563 478.201C617.245 491.257 590.486 492.343 567.691 491.906C555.901 491.679 546.817 485.647 537.216 479.345Z" fill="#ffffff" fill-rule="nonzero" opacity="1" stroke="none"/>
<path d="M540 131C545.306 134.149 551.924 134.52 557.341 137.473C575.183 147.197 580.176 154.503 587 172C567.625 158.384 551.348 148.691 532.748 143.719C518.28 139.853 502.407 138.842 482.575 141.063C476.966 141.691 457.19 141.538 452 144C430.847 154.034 410.154 165.427 391.777 180.066C379.73 189.662 368.917 200.656 365.5 216C413.071 172.854 478.264 136.859 543.317 165.207C556.994 171.167 564.512 173.654 573.876 184.221C583.783 195.4 579.409 204.791 585 216.5C615.808 174.868 591.882 144.671 549.569 130.423C544.77 128.807 544.024 129.648 540 131Z" fill="#929292" fill-rule="nonzero" opacity="1" stroke="none"/>
<path d="M418 439C398.813 444.854 390.812 423.432 372.348 432.365C359.681 438.492 377.745 467.448 385.813 473.689C395.026 480.816 410.433 478.819 420.299 478.888C456.453 479.139 461.81 473.872 472 439.5C459.705 438.722 448.131 437.397 436 439.5C439.059 437 442.308 434.716 445.178 432.001C448.531 428.829 449.859 418.567 443.279 417.758C442.276 417.635 433.443 434.947 419.928 431.29C408.602 428.226 414.36 413.053 406.891 411.549C399.578 410.077 398.311 418.949 400.731 423.165C404.956 430.528 410.823 434.899 418 439Z" fill="#ffffff" fill-rule="nonzero" opacity="1" stroke="none"/>
<path d="M564.5 418C554.53 426.019 561.302 431.024 570 438C567.277 439.871 563.801 440.525 560.005 440.573C552.285 440.672 543.24 438.265 536.5 438.5C530.446 481.009 575.214 480.126 603.5 479C612.94 478.624 620.477 475.296 626.362 467.849C633.189 459.21 636.098 448.208 638.389 437.652C639.533 432.38 633.302 431.988 629.365 430.785C626.326 429.856 623.094 428.275 620 429C617.237 429.647 615.869 432.937 613.5 434.5C605.977 439.462 598.185 439.155 589.5 439.5C597.519 433.54 608.173 426.487 608.145 415.338C604.635 414.215 601.058 412.615 597.378 412.822C594.298 434.694 573.71 435.831 564.5 418Z" fill="#ffffff" fill-rule="nonzero" opacity="1" stroke="none"/>
<path d="M530 537C525.286 541.479 491.628 542.233 484.286 542.768C474.825 543.456 467.735 544.555 458.608 547.136C450.906 549.315 448.135 550.503 437.366 555.943C426.597 561.383 419.844 566.393 414.407 575.304C415.771 576.87 415.236 588.654 416 593C418.682 608.255 439.75 627.283 449 637.5C455 634 455 634 461 630.5C448.584 618.94 436.483 609.428 437.8 590.921C438.36 583.053 444.673 577.332 445.592 569.367C450.228 569.411 455.01 570.654 459.5 569.5C469.126 567.027 474.294 560.747 483.5 559.5C490.356 558.571 502.682 562.497 507 563C513.992 563.814 519.498 558.591 526.463 559.62C539.194 561.501 547.264 570.685 560.5 568.5C563.336 577.903 567.865 582.768 569 593C571.5 587.75 569.826 591.57 572.326 586.32C579.19 594.667 591.881 584.845 591.549 573.425C591.261 563.536 579.742 559.179 564.738 551.818C549.734 544.457 539.621 541.723 531.533 543.982C530.766 540.491 530.766 540.491 530 537Z" fill="#e7e7e7" fill-rule="nonzero" opacity="1" stroke="none"/>
<path d="M417 198.5C426.601 203.359 438.852 190.773 449 195.5C437.93 202.068 427.634 205.685 416.5 213C422.825 215.114 429.837 212.786 436.5 212.5C446.894 212.054 457.318 211.8 467.71 212.28C494.991 213.539 532.869 232.674 559 217.5C538.64 197.774 512.061 197.149 485.327 193.517C478.828 192.634 484.316 189.685 478.202 189C469.803 188.058 467.28 189.698 459 192C471.924 174.672 522.036 168.802 542 167.5C536.536 161.935 514.514 164.697 506 165.5C473.457 168.567 444.397 181.426 417 198.5Z" fill="#959595" fill-rule="nonzero" opacity="1" stroke="none"/>
<path d="M517.5 437.5C517.167 457.833 517.052 478.171 516.5 498.5C516.24 508.095 491.005 508.846 490.704 499.944C490.192 484.804 490.396 469.648 490.5 454.5C490.548 447.532 492.652 443.746 489 438.5C482.123 450.939 480.173 463.145 471.899 475.458C469.874 478.472 467.934 481.822 467.508 485.428C466.757 491.775 464.85 497.939 463.868 504.255C463.365 507.495 463.769 510.439 465.924 513.076C474.759 523.887 472.853 510.665 482.5 511C491.601 511.316 498.11 518.537 507.495 518.382C525.02 518.091 518.019 502.073 534 518.5C539 515 539 515 544 511.5C541.184 502.021 543.612 491.104 537.5 483C538.5 482 538.5 482 539.5 481C527.599 467.176 525.976 452.729 517.5 437.5Z" fill="#d6d6d6" fill-rule="nonzero" opacity="1" stroke="none"/>
<path d="M486 801.5C478.282 803.741 471.988 812.229 469 819.5C468.255 821.312 470.355 823.203 471.37 824.879C474.2 829.555 477.6 833.867 480.5 838.5C483.433 843.185 484.211 851.028 489.57 852.383C493.411 853.355 514.72 852.959 517.407 852.399C518.626 852.145 536.18 825.348 536.978 823.364C537.279 822.616 537.976 821.652 537.5 821C523.842 802.275 509.596 794.649 486 801.5Z" fill="#949494" fill-rule="nonzero" opacity="1" stroke="none"/>
<path d="M454 192C456.596 193.499 456.305 193.721 460.308 193.251C467.956 192.355 475.483 190.442 483.163 189.885C492.751 189.189 502.387 189.417 512 189.5C543.094 189.767 563.32 194.212 584 218C586.029 215.971 585.14 207.464 585 205C583.989 187.168 564.746 170.786 548.415 166.892C522.093 160.614 473.247 176.857 454 192Z" fill="#ffffff" fill-rule="nonzero" opacity="1" stroke="none"/>
<path d="M350 421.5C348.588 424.718 348.498 423.841 349.196 427.945C353.681 454.317 357.575 480.806 363 507C363.385 508.861 365.513 509.876 366.5 511.5C373.521 523.055 380.349 534.728 387 546.5C396.816 563.874 404.4 578.836 416.296 594.49C417.534 590.294 416.699 582.801 419.5 580C407.047 561.749 405.137 541.266 398.081 519.956C393.74 506.846 374.698 484.616 374.698 484.616C374.698 484.616 365.329 472.051 362.248 465.035C355.949 450.692 357.034 435.08 350 421.5Z" fill="#d2d2d2" fill-rule="nonzero" opacity="1" stroke="none"/>
<path d="M411 148.5C415.72 148.208 413.755 147.931 427.63 144.556C441.505 141.181 453.935 139.489 466.5 135C465.471 141.398 456.43 140.907 451.5 144.5C459.407 143.923 473.76 142.885 479.08 142.476C487.862 141.799 496.692 141.943 505.5 142C536.777 142.202 565.543 153.085 587 176C590.843 170.603 584.625 162.693 582 158.5C572.319 143.036 561.198 140.109 545.605 132.544C509.143 114.854 445.662 128.601 411 148.5Z" fill="#ffffff" fill-rule="nonzero" opacity="1" stroke="none"/>
<path d="M609 636.5C604.413 641.916 604.3 641.57 600.302 650.095C593.08 665.496 586.855 681.36 579.385 696.642C575.561 704.466 570.403 711.58 566.456 719.342C562.052 728.002 549.834 746.407 550 755C569.88 742.684 586.375 728.688 602.454 711.462C602.612 711.293 610.482 703.261 610.5 699C610.57 681.999 610.003 665.001 610 648C609.999 644.152 610.496 640.045 609 636.5Z" fill="#e6e6e6" fill-rule="nonzero" opacity="1" stroke="none"/>
<path d="M397 636.5C396.731 657.773 390.349 679.862 396.194 700.318C399.986 713.589 413.789 721.714 424 731C433.452 739.596 444.591 746.129 454.886 753.694C436.811 714.05 420.76 673.021 397 636.5Z" fill="#e5e5e5" fill-rule="nonzero" opacity="1" stroke="none"/>
<path d="M503.071 426.847C503.071 426.847 489.669 431.683 489.062 436.641C486.556 457.109 483.875 478.662 489.5 498.5C491.398 505.194 497.404 506.779 506.17 506.829C512 504.302 516.897 502.997 516.939 498.363C517.124 477.937 519.693 454.245 517.255 435.046C516.361 428.011 503.071 426.847 503.071 426.847Z" fill="#ffffff" fill-rule="nonzero" opacity="1" stroke="none"/>
<path d="M484 558C477.062 557.822 471.121 563.204 464.866 566.21C460.295 568.406 445.068 566.872 443.935 569.103C440.042 576.763 448.48 582.818 454.959 582.503C464.099 582.059 471.719 578.871 480.886 577.207C490.235 575.51 499.29 581.68 508.5 580.5C515.05 579.661 521.429 577.662 528 577C537.293 576.064 547.998 586.012 556.774 582.166C560.781 580.41 567.928 569.833 561 567.5C555.962 565.803 551.081 569.739 546 568.5C535.53 565.947 526.823 556.922 515.282 558.598C496.245 561.363 502.44 558.474 484 558Z" fill="#000000" fill-rule="nonzero" opacity="1" stroke="none"/>
<path d="M352.5 286.5C372.21 263.773 389.447 247.241 421.142 244.562C433.41 243.525 460.656 248.864 472.5 242C437.433 213.888 388.27 224.019 363.721 259.219C358.71 266.404 350.756 276.948 352.5 286.5Z" fill="#929292" fill-rule="nonzero" opacity="1" stroke="none"/>
<path d="M322.5 401.5C316.22 402.644 313.495 406.759 314.154 413.462C316.467 437.005 318.852 460.545 321.795 484.017C322.946 493.2 336.881 498.857 344 502.5C345.652 499.671 345.626 500.363 344.931 495.404C341.001 467.372 337.191 439.313 332.432 411.41C331.277 404.637 329.955 404.858 322.5 401.5Z" fill="#e5e5e5" fill-rule="nonzero" opacity="1" stroke="none"/>
<path d="M682.5 401.5C677.369 403.905 674.721 407.982 673.864 413.58C669.65 441.125 665.778 468.721 661.905 496.316C661.34 500.34 661.375 499.761 662 502.5C676.844 493.757 681.886 491.671 684 475C686.193 457.711 688.975 440.502 691.259 423.225C692.366 414.846 691.838 409.858 682.5 401.5Z" fill="#e6e6e6" fill-rule="nonzero" opacity="1" stroke="none"/>
<path d="M449 830.5C429.593 848.045 409.148 864.433 388.5 880.5C391.204 886.495 389.722 884.079 392.5 888C396.67 885.703 400.938 883.573 405.011 881.108C415.742 874.613 426.146 867.584 436.9 861.127C447.255 854.91 463.926 877.21 470.5 882.5C478.897 864.914 460.322 843.687 449 830.5Z" fill="#d2d2d2" fill-rule="nonzero" opacity="1" stroke="none"/>
<path d="M535.164 883.389C544.383 875.344 552.354 861.971 564.5 860.5C570.916 859.723 576.203 866.015 581.841 869.177C592.066 874.911 604.882 880.281 613.5 888.5C615.75 884.5 615.75 884.5 618 880.5C610.538 873.887 602.864 867.563 595.108 861.347C582.608 851.328 569.894 841.586 557.508 831.359C548.243 838.984 543.525 848.09 537.726 858.071C535.18 862.454 535.004 867.153 535.004 867.153C535.004 867.153 534.323 876.003 535.164 883.389Z" fill="#d3d3d3" fill-rule="nonzero" opacity="1" stroke="none"/>
<path d="M542.5 515.5C539.231 518.904 536.574 523.027 532.693 525.713C524.267 531.543 527.44 518.87 521.5 522C514.75 525.557 507.237 534.06 498.017 530.133C492.157 527.638 486.515 520.405 480.5 522.5C480.784 524.392 478.947 523.678 478.947 523.678C478.947 523.678 469.811 520.096 464.5 516.5C460.371 529.658 480.508 543.181 487.423 549.392C492.125 553.615 496.473 555.814 500.577 556.489C500.95 556.55 501.691 556.636 501.691 556.636C514.803 557.936 525.477 543.833 537.407 531.22C541.192 527.218 543.645 520.888 542.5 515.5Z" fill="#bbbbbb" fill-rule="nonzero" opacity="1" stroke="none"/>
<path d="M368.5 436.5C390.631 419.725 399.33 449.56 420.5 439.5C416.302 435.713 414.725 434.034 408 431C405.02 429.656 401.305 432.656 397.503 430.361C393.554 427.978 387.926 421.516 385 419C382.743 417.06 378.892 418.995 376 417.5C381.153 412.039 386.533 406.185 394 404C399.678 402.339 404.03 402.336 408.5 399C399.994 394.881 389.919 396.885 380.581 397.131C362.537 397.606 362.688 425.664 368.5 436.5Z" fill="#bababa" fill-rule="nonzero" opacity="1" stroke="none"/>
<path d="M464 510C463.465 511.779 463.625 513.772 464.27 515.745C466.968 524.002 478.169 531.881 482.5 522C489.503 526.039 502.201 535.741 511.703 530.017C513.352 529.024 517.965 523.466 521.5 523C525.83 522.429 525.966 528.123 530.5 527.5C536.802 526.635 546.508 517.475 542.5 511C527.289 526.746 536.176 509.001 522.5 510C514.503 510.584 509.421 518.253 499.678 517.385C485.972 516.163 483.642 504.304 472.5 517C467.286 513.541 470.227 515.737 464 510Z" fill="#000000" fill-rule="nonzero" opacity="1" stroke="none"/>
<path d="M597.5 398.5C601.768 402.842 609.45 403.157 614.886 405.843C622.296 409.505 624.043 411.379 632 417C629.33 420.915 624.668 416.504 621.5 419C614.621 424.419 614.021 427.094 607.987 430.727C601.423 434.678 593.369 432.752 584.5 439C594.565 446.123 613.121 436.138 614.612 435.027C619.529 431.362 616.647 430.675 620 430C626.265 428.739 633.026 432.915 638 436C652.75 401.049 630.096 396.779 602.351 396.942C599.379 396.96 599.365 397.241 597.5 398.5Z" fill="#bababa" fill-rule="nonzero" opacity="1" stroke="none"/>
<path d="M668 253C673.271 245.867 663.171 230.598 661.127 226.49C653.303 210.763 641.519 198.497 629 186.5C630.25 185.5 629.569 185.084 630.819 184.084C627.414 182.036 625.469 181.367 621.469 181.402C615.723 203.872 633.396 212.953 649.655 227.042C658.272 234.509 661.378 244.064 668 253Z" fill="#929292" fill-rule="nonzero" opacity="1" stroke="none"/>
<path d="M535.5 443C537.464 438.434 550.046 439.833 550.046 439.833C550.046 439.833 555.559 440.756 560.24 441.12C564.921 441.483 569.049 439.868 572.411 439.791C569.23 434.378 561.82 432.479 559.902 426.428C559.025 423.664 560.754 422.059 561.855 420.872C563.957 418.605 566.567 417.644 564 411.5C560.546 414.154 555.341 417.379 553 421.5C551.719 423.755 550.731 429.598 546.788 430.203C537.501 431.629 544.816 416.301 549.336 407.398C549.818 406.448 550.056 405.393 550.416 404.391C529.691 396.793 528.334 432.108 535.5 443Z" fill="#bcbcbc" fill-rule="nonzero" opacity="1" stroke="none"/>
<path d="M454.5 404C457.275 408.485 460.25 412.852 462.824 417.455C465.058 421.447 465.832 431.971 458 429.5C451.588 427.477 450.365 407.491 441.055 413.191C448.271 434.629 451.875 424.539 432.5 439C436.536 442.668 439.903 439.595 445.5 439.5C455.556 439.329 471.054 442.988 472.347 437.939C474.766 428.497 475.439 392.132 454.5 404Z" fill="#bcbcbc" fill-rule="nonzero" opacity="1" stroke="none"/>
<path d="M630.787 184.046C621.763 186.728 647.136 205.183 651.5 212C658.488 222.916 662.053 228.333 666.074 239.747C668.857 247.646 666.607 256.416 671.5 263.5C677.43 257.204 673.459 247.033 672.5 239.5C670.077 220.468 659.778 207.689 630.787 184.046Z" fill="#ffffff" fill-rule="nonzero" opacity="1" stroke="none"/>
<path d="M623.5 219.5C627.484 223.653 625.89 221.595 628.5 225.5C625.644 226.133 626.972 225.62 624.5 227C634.764 237.935 643.03 251.259 649 265C651.877 271.622 651.635 275.946 655.5 281C662.041 269.52 643.803 212.703 623.5 219.5Z" fill="#969696" fill-rule="nonzero" opacity="1" stroke="none"/>
<path d="M476 596.5C476.558 604.877 487.409 609.445 499.251 610.298C513.88 611.353 530.02 606.74 530.127 596.64C512.311 595.458 493.899 596.645 476 596.5Z" fill="#000000" fill-rule="nonzero" opacity="1" stroke="none"/>
<path d="M530 596C523.533 597.81 523.139 607.23 515.5 607.5C508.169 607.759 500.835 608 493.5 608C491.659 608 489.821 607.77 488 607.5C482.919 606.746 468.449 587.837 471 601.5C474.463 620.047 512.463 620.607 524.5 613.5C528.226 611.3 541.526 592.775 530 596Z" fill="#d0d0d0" fill-rule="nonzero" opacity="1" stroke="none"/>
</g>
</g>
<g id="Layer-2-copy" vectornator:layerName="Layer 2 copy">
<path d="M40.3771 512C40.3771 251.53 251.53 40.3771 512 40.3771C772.47 40.3771 983.623 251.53 983.623 512C983.623 772.47 772.47 983.623 512 983.623C251.53 983.623 40.3771 772.47 40.3771 512Z" fill="none" opacity="1" stroke="#000000" stroke-linecap="butt" stroke-linejoin="round" stroke-width="67.5606" vectornator:layerName="Oval 1"/>
</g>
</svg>
