<?xml version="1.0" encoding="UTF-8" standalone="no"?>
<svg
   width="1396"
   height="1014"
   viewBox="0 -125 350 570"
   style="background-color:#deca86"
   version="1.1"
   id="svg13"
   sodipodi:docname="vip-gift-ratio.svg"
   inkscape:version="1.2.1 (9c6d41e4, 2022-07-14)"
   xmlns:inkscape="http://www.inkscape.org/namespaces/inkscape"
   xmlns:sodipodi="http://sodipodi.sourceforge.net/DTD/sodipodi-0.dtd"
   xmlns="http://www.w3.org/2000/svg"
   xmlns:svg="http://www.w3.org/2000/svg">
  <defs
     id="defs17" />
  <sodipodi:namedview
     id="namedview15"
     pagecolor="#505050"
     bordercolor="#eeeeee"
     borderopacity="1"
     inkscape:showpageshadow="0"
     inkscape:pageopacity="0"
     inkscape:pagecheckerboard="0"
     inkscape:deskcolor="#505050"
     showgrid="false"
     inkscape:zoom="1.1937276"
     inkscape:cx="498.85754"
     inkscape:cy="516.03064"
     inkscape:window-width="1615"
     inkscape:window-height="832"
     inkscape:window-x="0"
     inkscape:window-y="518"
     inkscape:window-maximized="0"
     inkscape:current-layer="svg13">
    <sodipodi:guide
       position="0,570"
       orientation="0,1396"
       id="guide279"
       inkscape:locked="false" />
    <sodipodi:guide
       position="350,570"
       orientation="1014,0"
       id="guide281"
       inkscape:locked="false" />
    <sodipodi:guide
       position="350,0"
       orientation="0,-1396"
       id="guide283"
       inkscape:locked="false" />
    <sodipodi:guide
       position="0,0"
       orientation="-1014,0"
       id="guide285"
       inkscape:locked="false" />
  </sodipodi:namedview>
  <circle
     fill="#080608"
     cx="179"
     cy="179"
     r="179"
     id="circle9" />
  <path
     fill="#ffffff"
     d="m 267.5,143 c 0,-4.475 -2.508,-9.254 -6.136,-12.962 0.26735,-1.0941 0.11162,-2.24881 -0.436,-3.233 -2.38554,-4.26875 -8.62035,-6.72402 -19.69971,-8.08176 -4.82302,-0.59104 -10.56408,-0.9741 -17.30529,-1.20824 15.461,-8.505 21.919,-20.96 22.315,-26.706 0.349,-5.056 -2.713,-11.743 -7.8,-17.037 -6.462,-6.724 -14.995,-10.291 -24.07,-10.021 -10.434,0.302 -23.641,7.335 -31.746,36.447 -5.545,-14.51 -14.627,-29.585 -25.143,-34.74 -15.271,-7.484 -30.736,6.991 -35.255,16.028 -4.188,8.376 -6.563,17.047 10.144,30.97 7.413,6.177 18.242,9.383 27.909,11.043 H 117 c -9.112,0 -19.5,10.388 -19.5,19.5 -0.0125,44.6669 0,67.66443 0,103.001 0,9.112 10.388,19.5 19.5,19.5 58.51136,8e-4 75.17468,0 131,0 9.112,0 19.5,-10.388 19.5,-19.5 -0.34887,-40.70304 0,-67.67434 0,-103 z m -81,-10.5 H 248 c 4.121,0 10.5,6.378 10.5,10.5 v 51.833 h -72 z m 28.131,-59.752 c 0.229,-0.006 0.455,-0.01 0.68,-0.01 8.379,0 14,4.523 16.64,7.27 4.087,4.253 5.427,8.503 5.311,10.182 -0.393,5.687 -13.73,26.264 -49.195,27.044 3.016,-17.389 10.292,-44.014 26.564,-44.486 z m -84.356,12.765 c 2.161,-4.323 10.25,-13.078 18.455,-13.078 1.606,0 3.218,0.336 4.79,1.106 10.029,4.917 20.913,26.084 24.64,42.673 -8.496,-0.245 -29.35,-1.772 -40.028,-10.671 C 125.516,95.031 127.616,90.83 130.275,85.513 Z M 117,132.5 h 60.5 v 62.333 h -71 V 143 c 0,-4.122 6.378,-10.5 10.5,-10.5 z m 0,124 c -4.122,0 -10.5,-6.379 -10.5,-10.5 v -42.167 h 71 V 256.5 Z m 131,0 h -61.5 v -52.667 h 72 V 246 c 0,4.121 -6.379,10.5 -10.5,10.5 z"
     id="path11"
     sodipodi:nodetypes="cccscccccccccscccccccssccccscscccsccccscccsssscccsscccss" />
</svg>
